Description

Sinopse e detalhes

Cinderela (Ilene Woods) vive com sua madrasta, Lady Tremaine (Eleanor Audley), e as duas filhas dela. Obrigada a trabalhar como empregada da casa, ela tem como amigos apenas os animais que a rodeiam. O local em que vive está agitado devido ao baile que será realizado no castelo, o qual contará com a presença do príncipe (William Phipps). Como Lady Tremaine pretende que uma das filhas se case com ele, elas se preparam com requinte para o evento. Cinderela, entretanto, não pode ir. Até que surge a Fada-madrinha (Verna Felton), que dá a Cinderela um vestido e condições para que possa ir ao baile em alto estilo. Entretanto há uma condição: Cinderela precisa retornar antes da meia-noite, caso contrário o feitiço será desfeito.

Format : Matroska
Format version : Version 2
File size : 1.01 GiB
Duration : 1h 15mn
Overall bit rate : 1 921 Kbps
Encoded date : UTC 2013-05-03 21:29:19
Writing application : mkvmerge v5.8.0 ('No Sleep / Pillow') built on Sep 2 2012 15:37:04
Writing library : libebml v1.2.3 + libmatroska v1.3.0

Video
ID : 1
Format : AVC
Format/Info : Advanced Video Codec
Format profile : High@L4.1
Format settings, CABAC : Yes
Format settings, ReFrames : 4 frames
Muxing mode : Header stripping
Codec ID : V_MPEG4/ISO/AVC
Duration : 1h 15mn
Bit rate : 539 Kbps
Width : 720 pixels
Height : 400 pixels
Display aspect ratio : 16:9
Frame rate mode : Constant
Frame rate : 23.976 fps
Color space : YUV
Chroma subsampling : 4:2:0
Bit depth : 8 bits
Scan type : Progressive
Bits/(Pixel*Frame) : 0.078
Stream size : 289 MiB (28%)
Title : Cinderella1 ( by fantasma )
Writing library : x264 core 130 r2273 b3065e6
Encoding settings : cabac=1 / ref=3 / deblock=1:0:0 / analyse=0x3:0x113 / me=hex / subme=7 / psy=1 / psy_rd=1.00:0.00 / mixed_ref=1 / me_range=16 / chroma_me=1 / trellis=1 / 8x8dct=1 / cqm=0 / deadzone=21,11 / fast_pskip=1 / chroma_qp_offset=-2 / threads=3 / lookahead_threads=1 / sliced_threads=0 / nr=0 / decimate=1 / interlaced=0 / bluray_compat=0 / constrained_intra=0 / bframes=3 / b_pyramid=2 / b_adapt=1 / b_bias=0 / direct=1 / weightb=1 / open_gop=0 / weightp=2 / keyint=240 / keyint_min=23 / scenecut=40 / intra_refresh=0 / rc_lookahead=40 / rc=crf / mbtree=1 / crf=23.0 / qcomp=0.60 / qpmin=0 / qpmax=69 / qpstep=4 / vbv_maxrate=62500 / vbv_bufsize=78125 / crf_max=0.0 / nal_hrd=none / ip_ratio=1.40 / aq=1:1.00
Language : Portuguese
Default : Yes
Forced : No

Audio #1
ID : 2
Format : AC-3
Format/Info : Audio Coding 3
Mode extension : CM (complete main)
Format settings, Endianness : Big
Muxing mode : Header stripping
Codec ID : A_AC3
Duration : 1h 15mn
Bit rate mode : Constant
Bit rate : 448 Kbps
Channel(s) : 6 channels
Channel positions : Front: L C R, Side: L R, LFE
Sampling rate : 48.0 KHz
Bit depth : 16 bits
Compression mode : Lossy
Stream size : 241 MiB (23%)
Title : by fantasma
Language : Portuguese
Default : Yes
Forced : No

Audio #2
ID : 3
Format : AC-3
Format/Info : Audio Coding 3
Mode extension : CM (complete main)
Format settings, Endianness : Big
Muxing mode : Header stripping
Codec ID : A_AC3
Duration : 1h 15mn
Bit rate mode : Constant
Bit rate : 448 Kbps
Channel(s) : 6 channels
Channel positions : Front: L C R, Side: L R, LFE
Sampling rate : 48.0 KHz
Bit depth : 16 bits
Compression mode : Lossy
Stream size : 241 MiB (23%)
Title : by fantasma
Language : English
Default : No
Forced : No

Audio #3
ID : 4
Format : AC-3
Format/Info : Audio Coding 3
Mode extension : CM (complete main)
Format settings, Endianness : Big
Muxing mode : Header stripping
Codec ID : A_AC3
Duration : 1h 15mn
Bit rate mode : Constant
Bit rate : 448 Kbps
Channel(s) : 6 channels
Channel positions : Front: L C R, Side: L R, LFE
Sampling rate : 48.0 KHz
Bit depth : 16 bits
Compression mode : Lossy
Stream size : 241 MiB (23%)
Title : by fantasma
Language : Spanish
Default : No
Forced : No

Text #1
ID : 5
Format : VobSub
Muxing mode : zlib
Codec ID : S_VOBSUB
Codec ID/Info : The same subtitle format used on DVDs
Title : English - (Caption/Normal Size Char)
Language : English
Default : No
Forced : No

Text #2
ID : 6
Format : VobSub
Muxing mode : zlib
Codec ID : S_VOBSUB
Codec ID/Info : The same subtitle format used on DVDs
Title : Spanish - (Caption/Normal Size Char)
Language : Spanish
Default : No
Forced : No

Text #3
ID : 7
Format : VobSub
Muxing mode : zlib
Codec ID : S_VOBSUB
Codec ID/Info : The same subtitle format used on DVDs
Title : Portuguese - (Caption/Normal Size Char)
Language : Portuguese
Default : No
Forced : No

Text #4
ID : 8
Format : UTF-8
Codec ID : S_TEXT/UTF8
Codec ID/Info : UTF-8 Plain Text
Title : Credito
Language : Portuguese
Default : Yes
Forced : No

Menu
00:00:00.000 : en:Chapter 01
00:01:23.467 : en:Chapter 02
00:04:20.667 : en:Chapter 03
00:07:37.167 : en:Chapter 04
00:10:14.834 : en:Chapter 05
00:13:28.668 : en:Chapter 06
00:17:38.469 : en:Chapter 07
00:22:06.803 : en:Chapter 08
00:23:31.803 : en:Chapter 09
00:26:04.836 : en:Chapter 10
00:27:53.804 : en:Chapter 11
00:30:59.504 : en:Chapter 12
00:33:30.704 : en:Chapter 13
00:36:46.704 : en:Chapter 14
00:38:53.672 : en:Chapter 15
00:41:59.872 : en:Chapter 16
00:44:09.840 : en:Chapter 17
00:48:20.541 : en:Chapter 18
00:52:51.008 : en:Chapter 19
00:56:53.876 : en:Chapter 20
01:00:39.043 : en:Chapter 21
01:04:07.677 : en:Chapter 22
01:07:31.044 : en:Chapter 23
01:13:01.544 : en:Chapter 24
01:15:00.478 : en:Chapter 25